<?xml version="1.0" encoding="UTF-8" standalone="no"?>
<!DOCTYPE svg PUBLIC "-//W3C//DTD SVG 1.1//EN"
 "http://www.w3.org/Graphics/SVG/1.1/DTD/svg11.dtd">
<!-- Generated by graphviz version 2.38.0 (20140413.2041)
 -->
<!-- Title: source tree Pages: 1 -->
<svg width="576pt" height="680pt"
 viewBox="0.00 0.00 576.00 680.24" xmlns="http://www.w3.org/2000/svg" xmlns:xlink="http://www.w3.org/1999/xlink">
<g id="graph0" class="graph" transform="scale(0.373657 0.373657) rotate(0) translate(4 1816.5)">
<title>source tree</title>
<polygon fill="white" stroke="none" points="-4,4 -4,-1816.5 1537.52,-1816.5 1537.52,4 -4,4"/>
<!-- entry_point -->
<g id="node1" class="node"><title>entry_point</title>
<ellipse fill="none" stroke="black" cx="1256.52" cy="-1759" rx="51.9908" ry="18"/>
<text text-anchor="middle" x="1256.52" y="-1755.3" font-family="Times New Roman,serif" font-size="14.00">entry_point</text>
</g>
<!-- application -->
<g id="node2" class="node"><title>application</title>
<ellipse fill="none" stroke="black" cx="1026.52" cy="-1546" rx="50.0912" ry="18"/>
<text text-anchor="middle" x="1026.52" y="-1542.3" font-family="Times New Roman,serif" font-size="14.00">application</text>
</g>
<!-- entry_point&#45;&gt;application -->
<g id="edge1" class="edge"><title>entry_point&#45;&gt;application</title>
<path fill="none" stroke="black" d="M1238.85,-1741.79C1198.28,-1704.57 1098.34,-1612.89 1051.5,-1569.92"/>
<polygon fill="black" stroke="black" points="1053.66,-1567.15 1043.93,-1562.97 1048.93,-1572.31 1053.66,-1567.15"/>
</g>
<!-- api -->
<g id="node4" class="node"><title>api</title>
<ellipse fill="none" stroke="black" cx="1031.52" cy="-53" rx="27" ry="18"/>
<text text-anchor="middle" x="1031.52" y="-49.3" font-family="Times New Roman,serif" font-size="14.00">api</text>
</g>
<!-- entry_point&#45;&gt;api -->
<g id="edge5" class="edge"><title>entry_point&#45;&gt;api</title>
<path fill="none" stroke="black" d="M1276.89,-1742.34C1340.86,-1691.24 1533.52,-1521.73 1533.52,-1334 1533.52,-1334 1533.52,-1334 1533.52,-479 1533.52,-368.059 1513,-329.369 1436.52,-249 1329.43,-136.464 1144,-81.0357 1066.82,-61.9469"/>
<polygon fill="black" stroke="black" points="1067.64,-58.5438 1057.09,-59.5936 1065.99,-65.3475 1067.64,-58.5438"/>
</g>
<!-- memory -->
<g id="node7" class="node"><title>memory</title>
<ellipse fill="none" stroke="black" cx="1465.52" cy="-480" rx="40.0939" ry="18"/>
<text text-anchor="middle" x="1465.52" y="-476.3" font-family="Times New Roman,serif" font-size="14.00">memory</text>
</g>
<!-- entry_point&#45;&gt;memory -->
<g id="edge23" class="edge"><title>entry_point&#45;&gt;memory</title>
<path fill="none" stroke="black" d="M1272.12,-1741.8C1321.88,-1688.35 1473.52,-1510.96 1473.52,-1334 1473.52,-1334 1473.52,-1334 1473.52,-905 1473.52,-755.404 1468.48,-576.172 1466.4,-508.589"/>
<polygon fill="black" stroke="black" points="1469.89,-508.251 1466.08,-498.364 1462.89,-508.469 1469.89,-508.251"/>
</g>
<!-- profiler -->
<g id="node8" class="node"><title>profiler</title>
<ellipse fill="none" stroke="black" cx="141.519" cy="-906" rx="37.0935" ry="18"/>
<text text-anchor="middle" x="141.519" y="-902.3" font-family="Times New Roman,serif" font-size="14.00">profiler</text>
</g>
<!-- entry_point&#45;&gt;profiler -->
<g id="edge6" class="edge"><title>entry_point&#45;&gt;profiler</title>
<path fill="none" stroke="black" d="M1223.15,-1745.04C1110.95,-1700.59 739.438,-1546.19 474.519,-1351 366.734,-1271.59 341.664,-1244.98 262.519,-1137 212.657,-1068.97 171.095,-977.652 152.299,-933.332"/>
<polygon fill="black" stroke="black" points="155.423,-931.732 148.328,-923.864 148.968,-934.439 155.423,-931.732"/>
</g>
<!-- application&#45;&gt;api -->
<g id="edge25" class="edge"><title>application&#45;&gt;api</title>
<path fill="none" stroke="black" d="M1054.1,-1530.88C1140.08,-1484.67 1397.52,-1328.86 1397.52,-1120 1397.52,-1120 1397.52,-1120 1397.52,-479 1397.52,-273.248 1148.17,-117.607 1061.1,-69.5281"/>
<polygon fill="black" stroke="black" points="1062.7,-66.4159 1052.25,-64.7037 1059.35,-72.5624 1062.7,-66.4159"/>
</g>
<!-- application&#45;&gt;memory -->
<g id="edge41" class="edge"><title>application&#45;&gt;memory</title>
<path fill="none" stroke="black" d="M1070.09,-1537.14C1152.33,-1519.79 1329.5,-1469.91 1411.52,-1351 1470.12,-1266.03 1435.52,-1223.22 1435.52,-1120 1435.52,-1120 1435.52,-1120 1435.52,-905 1435.52,-755.057 1454.42,-576.029 1462.22,-508.545"/>
<polygon fill="black" stroke="black" points="1465.72,-508.674 1463.41,-498.335 1458.77,-507.861 1465.72,-508.674"/>
</g>
<!-- application&#45;&gt;profiler -->
<g id="edge51" class="edge"><title>application&#45;&gt;profiler</title>
<path fill="none" stroke="black" d="M987.17,-1534.74C900.539,-1511.06 688.622,-1447.19 532.519,-1351 411.132,-1276.2 386.701,-1244.92 293.519,-1137 234.652,-1068.82 180.192,-976.59 155.472,-932.512"/>
<polygon fill="black" stroke="black" points="158.442,-930.652 150.521,-923.616 152.325,-934.056 158.442,-930.652"/>
</g>
<!-- logger -->
<g id="node9" class="node"><title>logger</title>
<ellipse fill="none" stroke="black" cx="335.519" cy="-1119" rx="33.2948" ry="18"/>
<text text-anchor="middle" x="335.519" y="-1115.3" font-family="Times New Roman,serif" font-size="14.00">logger</text>
</g>
<!-- application&#45;&gt;logger -->
<g id="edge7" class="edge"><title>application&#45;&gt;logger</title>
<path fill="none" stroke="black" d="M989.402,-1533.72C910.075,-1508.6 719.901,-1442.95 580.519,-1351 486.114,-1288.72 394.477,-1188.65 355.338,-1143.47"/>
<polygon fill="black" stroke="black" points="357.826,-1141 348.652,-1135.7 352.518,-1145.56 357.826,-1141"/>
</g>
<!-- event -->
<g id="node10" class="node"><title>event</title>
<ellipse fill="none" stroke="black" cx="985.519" cy="-1119" rx="29.795" ry="18"/>
<text text-anchor="middle" x="985.519" y="-1115.3" font-family="Times New Roman,serif" font-size="14.00">event</text>
</g>
<!-- application&#45;&gt;event -->
<g id="edge8" class="edge"><title>application&#45;&gt;event</title>
<path fill="none" stroke="black" d="M1024.86,-1527.81C1018.55,-1462.4 995.998,-1228.63 988.197,-1147.76"/>
<polygon fill="black" stroke="black" points="991.641,-1147.02 987.197,-1137.4 984.674,-1147.69 991.641,-1147.02"/>
</g>
<!-- window -->
<g id="node11" class="node"><title>window</title>
<ellipse fill="none" stroke="black" cx="629.519" cy="-1333" rx="39.7935" ry="18"/>
<text text-anchor="middle" x="629.519" y="-1329.3" font-family="Times New Roman,serif" font-size="14.00">window</text>
</g>
<!-- application&#45;&gt;window -->
<g id="edge9" class="edge"><title>application&#45;&gt;window</title>
<path fill="none" stroke="black" d="M999.543,-1530.66C929.192,-1493.27 740.246,-1392.85 663.062,-1351.83"/>
<polygon fill="black" stroke="black" points="664.691,-1348.73 654.218,-1347.13 661.406,-1354.91 664.691,-1348.73"/>
</g>
<!-- types -->
<g id="node14" class="node"><title>types</title>
<ellipse fill="none" stroke="black" cx="629.519" cy="-693" rx="30.5947" ry="18"/>
<text text-anchor="middle" x="629.519" y="-689.3" font-family="Times New Roman,serif" font-size="14.00">types</text>
</g>
<!-- application&#45;&gt;types -->
<g id="edge32" class="edge"><title>application&#45;&gt;types</title>
<path fill="none" stroke="black" d="M1018.59,-1528C969.009,-1421.72 701.81,-848.962 641.583,-719.86"/>
<polygon fill="black" stroke="black" points="644.704,-718.272 637.304,-710.689 638.36,-721.232 644.704,-718.272"/>
</g>
<!-- timer -->
<g id="node16" class="node"><title>timer</title>
<ellipse fill="none" stroke="black" cx="1312.52" cy="-693" rx="28.6953" ry="18"/>
<text text-anchor="middle" x="1312.52" y="-689.3" font-family="Times New Roman,serif" font-size="14.00">timer</text>
</g>
<!-- application&#45;&gt;timer -->
<g id="edge12" class="edge"><title>application&#45;&gt;timer</title>
<path fill="none" stroke="black" d="M1032.23,-1528C1067.91,-1421.83 1260.05,-850.109 1303.7,-720.25"/>
<polygon fill="black" stroke="black" points="1307.04,-721.283 1306.91,-710.689 1300.41,-719.053 1307.04,-721.283"/>
</g>
<!-- macro -->
<g id="node21" class="node"><title>macro</title>
<ellipse fill="none" stroke="black" cx="1067.52" cy="-1119" rx="33.5952" ry="18"/>
<text text-anchor="middle" x="1067.52" y="-1115.3" font-family="Times New Roman,serif" font-size="14.00">macro</text>
</g>
<!-- application&#45;&gt;macro -->
<g id="edge40" class="edge"><title>application&#45;&gt;macro</title>
<path fill="none" stroke="black" d="M1028.18,-1527.81C1034.49,-1462.4 1057.04,-1228.63 1064.84,-1147.76"/>
<polygon fill="black" stroke="black" points="1068.36,-1147.69 1065.84,-1137.4 1061.4,-1147.02 1068.36,-1147.69"/>
</g>
<!-- key_event -->
<g id="node3" class="node"><title>key_event</title>
<ellipse fill="none" stroke="black" cx="1109.52" cy="-906" rx="47.3916" ry="18"/>
<text text-anchor="middle" x="1109.52" y="-902.3" font-family="Times New Roman,serif" font-size="14.00">key_event</text>
</g>
<!-- key_event&#45;&gt;api -->
<g id="edge2" class="edge"><title>key_event&#45;&gt;api</title>
<path fill="none" stroke="black" d="M1109.24,-887.949C1107.82,-812.565 1100.27,-501.766 1068.52,-249 1060.92,-188.476 1046.13,-118.412 1037.74,-80.9437"/>
<polygon fill="black" stroke="black" points="1041.07,-79.8219 1035.45,-70.8413 1034.25,-81.3672 1041.07,-79.8219"/>
</g>
<!-- base_event -->
<g id="node6" class="node"><title>base_event</title>
<ellipse fill="none" stroke="black" cx="1186.52" cy="-693" rx="51.1914" ry="18"/>
<text text-anchor="middle" x="1186.52" y="-689.3" font-family="Times New Roman,serif" font-size="14.00">base_event</text>
</g>
<!-- key_event&#45;&gt;base_event -->
<g id="edge30" class="edge"><title>key_event&#45;&gt;base_event</title>
<path fill="none" stroke="black" d="M1115.69,-888.09C1129.07,-851.437 1160.81,-764.437 1176.87,-720.444"/>
<polygon fill="black" stroke="black" points="1180.18,-721.585 1180.32,-710.991 1173.6,-719.185 1180.18,-721.585"/>
</g>
<!-- matrix -->
<g id="node5" class="node"><title>matrix</title>
<ellipse fill="none" stroke="black" cx="858.519" cy="-906" rx="33.2948" ry="18"/>
<text text-anchor="middle" x="858.519" y="-902.3" font-family="Times New Roman,serif" font-size="14.00">matrix</text>
</g>
<!-- matrix&#45;&gt;api -->
<g id="edge3" class="edge"><title>matrix&#45;&gt;api</title>
<path fill="none" stroke="black" d="M863.835,-887.953C886.11,-815.786 972.62,-527.965 1012.52,-285 1024.51,-211.972 1029.08,-124.649 1030.7,-81.2619"/>
<polygon fill="black" stroke="black" points="1034.2,-81.3296 1031.05,-71.2133 1027.2,-81.0848 1034.2,-81.3296"/>
</g>
<!-- matrix&#45;&gt;types -->
<g id="edge45" class="edge"><title>matrix&#45;&gt;types</title>
<path fill="none" stroke="black" d="M842.416,-890.163C802.573,-853.451 699.251,-758.251 652.772,-715.426"/>
<polygon fill="black" stroke="black" points="655.026,-712.743 645.3,-708.541 650.282,-717.891 655.026,-712.743"/>
</g>
<!-- base_event&#45;&gt;api -->
<g id="edge43" class="edge"><title>base_event&#45;&gt;api</title>
<path fill="none" stroke="black" d="M1184.69,-675.01C1176.93,-604.111 1146.11,-331.704 1121.52,-249 1102.49,-185.025 1066.07,-115.176 1045.88,-78.9469"/>
<polygon fill="black" stroke="black" points="1048.84,-77.0644 1040.88,-70.0679 1042.74,-80.4988 1048.84,-77.0644"/>
</g>
<!-- base_event&#45;&gt;memory -->
<g id="edge4" class="edge"><title>base_event&#45;&gt;memory</title>
<path fill="none" stroke="black" d="M1207.03,-676.485C1256.35,-639.189 1381.6,-544.464 1437.66,-502.071"/>
<polygon fill="black" stroke="black" points="1439.86,-504.795 1445.72,-495.971 1435.64,-499.212 1439.86,-504.795"/>
</g>
<!-- memory&#45;&gt;api -->
<g id="edge18" class="edge"><title>memory&#45;&gt;api</title>
<path fill="none" stroke="black" d="M1466.13,-461.941C1466.71,-420.783 1462.81,-314.591 1411.52,-249 1321,-133.238 1142.9,-79.8461 1067.06,-61.6331"/>
<polygon fill="black" stroke="black" points="1067.6,-58.1632 1057.06,-59.2938 1066,-64.9793 1067.6,-58.1632"/>
</g>
<!-- profiler&#45;&gt;api -->
<g id="edge15" class="edge"><title>profiler&#45;&gt;api</title>
<path fill="none" stroke="black" d="M134.411,-888.07C101.374,-806.432 -28.8815,-449.162 132.519,-249 243.867,-110.91 838.917,-65.6418 994.353,-56.0838"/>
<polygon fill="black" stroke="black" points="994.588,-59.5761 1004.36,-55.4809 994.167,-52.5888 994.588,-59.5761"/>
</g>
<!-- logger&#45;&gt;api -->
<g id="edge37" class="edge"><title>logger&#45;&gt;api</title>
<path fill="none" stroke="black" d="M324.148,-1101.78C259.599,-1007.55 -50.1664,-525.255 170.519,-249 276.431,-116.419 843.314,-67.3004 994.462,-56.4537"/>
<polygon fill="black" stroke="black" points="994.885,-59.9327 1004.61,-55.7382 994.393,-52.95 994.885,-59.9327"/>
</g>
<!-- logger&#45;&gt;profiler -->
<g id="edge16" class="edge"><title>logger&#45;&gt;profiler</title>
<path fill="none" stroke="black" d="M321.253,-1102.48C287.561,-1065.84 202.897,-973.757 162.979,-930.341"/>
<polygon fill="black" stroke="black" points="165.413,-927.817 156.069,-922.825 160.26,-932.555 165.413,-927.817"/>
</g>
<!-- event&#45;&gt;key_event -->
<g id="edge44" class="edge"><title>event&#45;&gt;key_event</title>
<path fill="none" stroke="black" d="M995.043,-1101.79C1016.49,-1065.31 1068.69,-976.476 1094.53,-932.512"/>
<polygon fill="black" stroke="black" points="1097.57,-934.241 1099.62,-923.846 1091.53,-930.694 1097.57,-934.241"/>
</g>
<!-- event&#45;&gt;base_event -->
<g id="edge14" class="edge"><title>event&#45;&gt;base_event</title>
<path fill="none" stroke="black" d="M1004.21,-1104.79C1042.37,-1076.63 1128.75,-1006.45 1165.52,-924 1195.85,-856.001 1193.23,-765.638 1189.5,-721.131"/>
<polygon fill="black" stroke="black" points="1192.98,-720.731 1188.57,-711.095 1186.01,-721.374 1192.98,-720.731"/>
</g>
<!-- mouse_event -->
<g id="node17" class="node"><title>mouse_event</title>
<ellipse fill="none" stroke="black" cx="985.519" cy="-906" rx="58.4896" ry="18"/>
<text text-anchor="middle" x="985.519" y="-902.3" font-family="Times New Roman,serif" font-size="14.00">mouse_event</text>
</g>
<!-- event&#45;&gt;mouse_event -->
<g id="edge22" class="edge"><title>event&#45;&gt;mouse_event</title>
<path fill="none" stroke="black" d="M985.519,-1100.73C985.519,-1064.09 985.519,-978.3 985.519,-934.213"/>
<polygon fill="black" stroke="black" points="989.019,-934.21 985.519,-924.21 982.019,-934.21 989.019,-934.21"/>
</g>
<!-- window&#45;&gt;api -->
<g id="edge35" class="edge"><title>window&#45;&gt;api</title>
<path fill="none" stroke="black" d="M613.11,-1316.26C506.655,-1212.27 -72.7528,-617.021 217.519,-249 316.729,-123.217 848.847,-69.4527 994.59,-56.9555"/>
<polygon fill="black" stroke="black" points="995.122,-60.4231 1004.79,-56.0943 994.534,-53.4479 995.122,-60.4231"/>
</g>
<!-- window&#45;&gt;profiler -->
<g id="edge17" class="edge"><title>window&#45;&gt;profiler</title>
<path fill="none" stroke="black" d="M613.285,-1316.55C573.645,-1278.96 468.493,-1179.99 377.519,-1101 303.022,-1036.32 212.187,-963.209 168.087,-928.069"/>
<polygon fill="black" stroke="black" points="170.164,-925.248 160.16,-921.76 165.805,-930.726 170.164,-925.248"/>
</g>
<!-- window&#45;&gt;logger -->
<g id="edge50" class="edge"><title>window&#45;&gt;logger</title>
<path fill="none" stroke="black" d="M609.311,-1317.43C557.854,-1280.32 421.81,-1182.22 363.117,-1139.9"/>
<polygon fill="black" stroke="black" points="364.87,-1136.85 354.711,-1133.84 360.775,-1142.53 364.87,-1136.85"/>
</g>
<!-- window&#45;&gt;event -->
<g id="edge46" class="edge"><title>window&#45;&gt;event</title>
<path fill="none" stroke="black" d="M652.603,-1318.25C714.977,-1281.11 886.843,-1178.76 956.062,-1137.54"/>
<polygon fill="black" stroke="black" points="957.944,-1140.49 964.746,-1132.37 954.363,-1134.48 957.944,-1140.49"/>
</g>
<!-- window&#45;&gt;types -->
<g id="edge24" class="edge"><title>window&#45;&gt;types</title>
<path fill="none" stroke="black" d="M629.519,-1314.94C629.519,-1227.48 629.519,-829.417 629.519,-721.216"/>
<polygon fill="black" stroke="black" points="633.019,-721.118 629.519,-711.118 626.019,-721.118 633.019,-721.118"/>
</g>
<!-- window&#45;&gt;macro -->
<g id="edge21" class="edge"><title>window&#45;&gt;macro</title>
<path fill="none" stroke="black" d="M655.606,-1319.37C731.149,-1282.81 950.035,-1176.86 1034.1,-1136.18"/>
<polygon fill="black" stroke="black" points="1035.72,-1139.28 1043.2,-1131.77 1032.67,-1132.98 1035.72,-1139.28"/>
</g>
<!-- logger_entry_point -->
<g id="node12" class="node"><title>logger_entry_point</title>
<ellipse fill="none" stroke="black" cx="1252.52" cy="-480" rx="79.0865" ry="18"/>
<text text-anchor="middle" x="1252.52" y="-476.3" font-family="Times New Roman,serif" font-size="14.00">logger_entry_point</text>
</g>
<!-- tee -->
<g id="node13" class="node"><title>tee</title>
<ellipse fill="none" stroke="black" cx="1226.52" cy="-267" rx="27" ry="18"/>
<text text-anchor="middle" x="1226.52" y="-263.3" font-family="Times New Roman,serif" font-size="14.00">tee</text>
</g>
<!-- logger_entry_point&#45;&gt;tee -->
<g id="edge10" class="edge"><title>logger_entry_point&#45;&gt;tee</title>
<path fill="none" stroke="black" d="M1250.39,-461.733C1245.88,-425.09 1235.3,-339.3 1229.87,-295.213"/>
<polygon fill="black" stroke="black" points="1233.34,-294.707 1228.64,-285.21 1226.39,-295.563 1233.34,-294.707"/>
</g>
<!-- tee&#45;&gt;api -->
<g id="edge47" class="edge"><title>tee&#45;&gt;api</title>
<path fill="none" stroke="black" d="M1212.81,-251.093C1179.1,-214.448 1092.05,-119.804 1052.1,-76.3779"/>
<polygon fill="black" stroke="black" points="1054.56,-73.8815 1045.22,-68.891 1049.41,-78.6204 1054.56,-73.8815"/>
</g>
<!-- types&#45;&gt;api -->
<g id="edge49" class="edge"><title>types&#45;&gt;api</title>
<path fill="none" stroke="black" d="M605.882,-681.255C502.381,-632.791 100.47,-429.098 241.519,-249 337.331,-126.662 851.877,-70.5818 994.719,-57.227"/>
<polygon fill="black" stroke="black" points="995.095,-60.7072 1004.73,-56.3043 994.453,-53.7367 995.095,-60.7072"/>
</g>
<!-- vector -->
<g id="node15" class="node"><title>vector</title>
<ellipse fill="none" stroke="black" cx="610.519" cy="-480" rx="33.5952" ry="18"/>
<text text-anchor="middle" x="610.519" y="-476.3" font-family="Times New Roman,serif" font-size="14.00">vector</text>
</g>
<!-- types&#45;&gt;vector -->
<g id="edge11" class="edge"><title>types&#45;&gt;vector</title>
<path fill="none" stroke="black" d="M627.964,-674.733C624.664,-638.09 616.939,-552.3 612.969,-508.213"/>
<polygon fill="black" stroke="black" points="616.451,-507.855 612.068,-498.21 609.479,-508.483 616.451,-507.855"/>
</g>
<!-- vector&#45;&gt;api -->
<g id="edge53" class="edge"><title>vector&#45;&gt;api</title>
<path fill="none" stroke="black" d="M583.475,-469.025C506.544,-439.164 296.601,-346.494 369.519,-249 447.343,-144.945 868.523,-77.2309 995.357,-58.9746"/>
<polygon fill="black" stroke="black" points="995.936,-62.4276 1005.34,-57.5525 994.949,-55.4976 995.936,-62.4276"/>
</g>
<!-- swizzle -->
<g id="node20" class="node"><title>swizzle</title>
<ellipse fill="none" stroke="black" cx="286.519" cy="-267" rx="36.2938" ry="18"/>
<text text-anchor="middle" x="286.519" y="-263.3" font-family="Times New Roman,serif" font-size="14.00">swizzle</text>
</g>
<!-- vector&#45;&gt;swizzle -->
<g id="edge48" class="edge"><title>vector&#45;&gt;swizzle</title>
<path fill="none" stroke="black" d="M589.758,-465.48C534.133,-429.255 381.563,-329.896 316.525,-287.541"/>
<polygon fill="black" stroke="black" points="318.238,-284.48 307.949,-281.956 314.418,-290.346 318.238,-284.48"/>
</g>
<!-- swizzle_vec2.inc -->
<g id="node22" class="node"><title>swizzle_vec2.inc</title>
<ellipse fill="none" stroke="black" cx="449.519" cy="-267" rx="71.4873" ry="18"/>
<text text-anchor="middle" x="449.519" y="-263.3" font-family="Times New Roman,serif" font-size="14.00">swizzle_vec2.inc</text>
</g>
<!-- vector&#45;&gt;swizzle_vec2.inc -->
<g id="edge27" class="edge"><title>vector&#45;&gt;swizzle_vec2.inc</title>
<path fill="none" stroke="black" d="M598.417,-463.141C570.651,-426.751 502.182,-337.018 468.648,-293.07"/>
<polygon fill="black" stroke="black" points="471.278,-290.747 462.429,-284.92 465.713,-294.993 471.278,-290.747"/>
</g>
<!-- swizzle_vec4.inc -->
<g id="node23" class="node"><title>swizzle_vec4.inc</title>
<ellipse fill="none" stroke="black" cx="610.519" cy="-267" rx="71.4873" ry="18"/>
<text text-anchor="middle" x="610.519" y="-263.3" font-family="Times New Roman,serif" font-size="14.00">swizzle_vec4.inc</text>
</g>
<!-- vector&#45;&gt;swizzle_vec4.inc -->
<g id="edge31" class="edge"><title>vector&#45;&gt;swizzle_vec4.inc</title>
<path fill="none" stroke="black" d="M610.519,-461.733C610.519,-425.09 610.519,-339.3 610.519,-295.213"/>
<polygon fill="black" stroke="black" points="614.019,-295.21 610.519,-285.21 607.019,-295.21 614.019,-295.21"/>
</g>
<!-- swizzle_vec1.inc -->
<g id="node24" class="node"><title>swizzle_vec1.inc</title>
<ellipse fill="none" stroke="black" cx="771.519" cy="-267" rx="71.4873" ry="18"/>
<text text-anchor="middle" x="771.519" y="-263.3" font-family="Times New Roman,serif" font-size="14.00">swizzle_vec1.inc</text>
</g>
<!-- vector&#45;&gt;swizzle_vec1.inc -->
<g id="edge34" class="edge"><title>vector&#45;&gt;swizzle_vec1.inc</title>
<path fill="none" stroke="black" d="M622.62,-463.141C650.386,-426.751 718.856,-337.018 752.39,-293.07"/>
<polygon fill="black" stroke="black" points="755.324,-294.993 758.608,-284.92 749.759,-290.747 755.324,-294.993"/>
</g>
<!-- swizzle_vec3.inc -->
<g id="node25" class="node"><title>swizzle_vec3.inc</title>
<ellipse fill="none" stroke="black" cx="932.519" cy="-267" rx="71.4873" ry="18"/>
<text text-anchor="middle" x="932.519" y="-263.3" font-family="Times New Roman,serif" font-size="14.00">swizzle_vec3.inc</text>
</g>
<!-- vector&#45;&gt;swizzle_vec3.inc -->
<g id="edge42" class="edge"><title>vector&#45;&gt;swizzle_vec3.inc</title>
<path fill="none" stroke="black" d="M631.151,-465.48C685.616,-429.79 833.602,-332.818 899.776,-289.456"/>
<polygon fill="black" stroke="black" points="901.732,-292.358 908.178,-283.95 897.896,-286.503 901.732,-292.358"/>
</g>
<!-- timer&#45;&gt;api -->
<g id="edge29" class="edge"><title>timer&#45;&gt;api</title>
<path fill="none" stroke="black" d="M1315.82,-674.962C1322.15,-641.305 1335.79,-563.848 1340.52,-498 1348.82,-382.328 1328.99,-344.03 1262.52,-249 1206,-168.195 1108.01,-100.961 1059.87,-70.9049"/>
<polygon fill="black" stroke="black" points="1061.56,-67.8331 1051.21,-65.5633 1057.88,-73.7913 1061.56,-67.8331"/>
</g>
<!-- mouse_event&#45;&gt;api -->
<g id="edge13" class="edge"><title>mouse_event&#45;&gt;api</title>
<path fill="none" stroke="black" d="M992.679,-888.018C1006.26,-854.772 1035.33,-778.452 1045.52,-711 1082.09,-468.994 1047.54,-171.213 1035.38,-81.0853"/>
<polygon fill="black" stroke="black" points="1038.84,-80.5724 1034.02,-71.1413 1031.91,-81.5244 1038.84,-80.5724"/>
</g>
<!-- mouse_event&#45;&gt;base_event -->
<g id="edge52" class="edge"><title>mouse_event&#45;&gt;base_event</title>
<path fill="none" stroke="black" d="M1001.29,-888.443C1036.75,-851.22 1122.87,-760.816 1163.97,-717.673"/>
<polygon fill="black" stroke="black" points="1166.73,-719.845 1171.1,-710.19 1161.66,-715.017 1166.73,-719.845"/>
</g>
<!-- mouse_event&#45;&gt;types -->
<g id="edge33" class="edge"><title>mouse_event&#45;&gt;types</title>
<path fill="none" stroke="black" d="M959.629,-889.655C895.141,-851.433 727.621,-752.145 659.243,-711.618"/>
<polygon fill="black" stroke="black" points="660.661,-708.389 650.274,-706.302 657.092,-714.411 660.661,-708.389"/>
</g>
<!-- renderer -->
<g id="node18" class="node"><title>renderer</title>
<ellipse fill="none" stroke="black" cx="95.5187" cy="-1546" rx="40.0939" ry="18"/>
<text text-anchor="middle" x="95.5187" y="-1542.3" font-family="Times New Roman,serif" font-size="14.00">renderer</text>
</g>
<!-- renderer&#45;&gt;api -->
<g id="edge38" class="edge"><title>renderer&#45;&gt;api</title>
<path fill="none" stroke="black" d="M88.6475,-1528.19C75.3335,-1494.94 45.975,-1418.15 30.5187,-1351 7.29744,-1250.11 0.518664,-1223.53 0.518664,-1120 0.518664,-1120 0.518664,-1120 0.518664,-479 0.518664,-372.018 -7.77996,-320.811 71.5187,-249 212.001,-121.782 835.531,-68.275 994.523,-56.5592"/>
<polygon fill="black" stroke="black" points="995.015,-60.0327 1004.74,-55.8174 994.508,-53.0511 995.015,-60.0327"/>
</g>
<!-- renderer&#45;&gt;profiler -->
<g id="edge28" class="edge"><title>renderer&#45;&gt;profiler</title>
<path fill="none" stroke="black" d="M96.7491,-1527.94C103.055,-1440.48 131.755,-1042.42 139.556,-934.216"/>
<polygon fill="black" stroke="black" points="143.056,-934.344 140.284,-924.118 136.074,-933.84 143.056,-934.344"/>
</g>
<!-- renderer&#45;&gt;types -->
<g id="edge39" class="edge"><title>renderer&#45;&gt;types</title>
<path fill="none" stroke="black" d="M89.2336,-1528.22C60.3501,-1447.97 -52.0742,-1098.65 95.5187,-888 211.8,-722.039 485.36,-697.508 588.872,-694.292"/>
<polygon fill="black" stroke="black" points="589.016,-697.79 598.921,-694.031 588.834,-690.792 589.016,-697.79"/>
</g>
<!-- debug -->
<g id="node19" class="node"><title>debug</title>
<ellipse fill="none" stroke="black" cx="175.519" cy="-1333" rx="33.2948" ry="18"/>
<text text-anchor="middle" x="175.519" y="-1329.3" font-family="Times New Roman,serif" font-size="14.00">debug</text>
</g>
<!-- renderer&#45;&gt;debug -->
<g id="edge19" class="edge"><title>renderer&#45;&gt;debug</title>
<path fill="none" stroke="black" d="M101.93,-1528.09C115.861,-1491.35 148.976,-1404.01 165.616,-1360.12"/>
<polygon fill="black" stroke="black" points="168.915,-1361.29 169.188,-1350.7 162.37,-1358.81 168.915,-1361.29"/>
</g>
<!-- debug&#45;&gt;api -->
<g id="edge26" class="edge"><title>debug&#45;&gt;api</title>
<path fill="none" stroke="black" d="M166.102,-1315.61C135.15,-1260.16 38.5187,-1073.68 38.5187,-907 38.5187,-907 38.5187,-907 38.5187,-479 38.5187,-372.404 28.2009,-321.312 106.519,-249 240.599,-125.201 839.785,-69.3346 994.807,-56.7992"/>
<polygon fill="black" stroke="black" points="995.088,-60.288 1004.78,-56.0035 994.531,-53.3102 995.088,-60.288"/>
</g>
<!-- debug&#45;&gt;logger -->
<g id="edge36" class="edge"><title>debug&#45;&gt;logger</title>
<path fill="none" stroke="black" d="M187.545,-1316.07C215.411,-1279.14 284.531,-1187.56 317.486,-1143.89"/>
<polygon fill="black" stroke="black" points="320.341,-1145.92 323.571,-1135.83 314.754,-1141.7 320.341,-1145.92"/>
</g>
<!-- swizzle&#45;&gt;api -->
<g id="edge20" class="edge"><title>swizzle&#45;&gt;api</title>
<path fill="none" stroke="black" d="M315.251,-255.934C322.19,-253.585 329.6,-251.145 336.519,-249 588.218,-170.964 895.341,-89.5594 997.016,-62.9709"/>
<polygon fill="black" stroke="black" points="997.963,-66.3411 1006.75,-60.4278 996.194,-59.5682 997.963,-66.3411"/>
</g>
</g>
</svg>
